<?xml version="1.0" encoding="UTF-8" standalone="no"?>
<!DOCTYPE svg PUBLIC "-//W3C//DTD SVG 1.1//EN"
 "http://www.w3.org/Graphics/SVG/1.1/DTD/svg11.dtd">
<!-- Generated by graphviz version 2.38.0 (20140413.2041)
 -->
<!-- Title: G Pages: 1 -->
<svg width="786pt" height="505pt"
 viewBox="0.00 0.00 786.00 505.00" xmlns="http://www.w3.org/2000/svg" xmlns:xlink="http://www.w3.org/1999/xlink">
<g id="graph0" class="graph" transform="scale(1 1) rotate(0) translate(4 501)">
<title>G</title>
<polygon fill="white" stroke="none" points="-4,4 -4,-501 782,-501 782,4 -4,4"/>
<g id="clust1" class="cluster"><title>cluster_family_0</title>
<polygon fill="#fafafa" stroke="#fafafa" points="8,-352 8,-489 489,-489 489,-352 8,-352"/>
<text text-anchor="start" x="16" y="-471.6" font-family="Helvetica, Arial, sans-serif" font-weight="bold" font-size="16.00">Pritchett</text>
</g>
<g id="clust2" class="cluster"><title>cluster_family_0_0</title>
</g>
<g id="clust5" class="cluster"><title>cluster_family_0_1</title>
</g>
<g id="clust8" class="cluster"><title>cluster_family_1</title>
<polygon fill="#fafafa" stroke="#fafafa" points="289,-153 289,-344 770,-344 770,-153 289,-153"/>
<text text-anchor="start" x="297" y="-326.6" font-family="Helvetica, Arial, sans-serif" font-weight="bold" font-size="16.00">Dunphy</text>
</g>
<g id="clust9" class="cluster"><title>cluster_family_1_0</title>
</g>
<g id="clust12" class="cluster"><title>cluster_family_2</title>
<polygon fill="#fafafa" stroke="#fafafa" points="289,-8 289,-145 770,-145 770,-8 289,-8"/>
<text text-anchor="start" x="297" y="-127.6" font-family="Helvetica, Arial, sans-serif" font-weight="bold" font-size="16.00">Tucker</text>
</g>
<g id="clust13" class="cluster"><title>cluster_family_2_0</title>
</g>
<g id="clust16" class="cluster"><title>cluster_family_3</title>
</g>
<!-- union_0_0 -->
<g id="node1" class="node"><title>union_0_0</title>
<ellipse fill="#2ecc71" stroke="white" cx="230.5" cy="-434" rx="3.5" ry="3.5"/>
</g>
<!-- siblings_0_0 -->
<g id="node3" class="node"><title>siblings_0_0</title>
<polygon fill="#2ecc71" stroke="#cccccc" stroke-width="0" points="270,-434.5 263,-434.5 263,-433.5 270,-433.5 270,-434.5"/>
</g>
<!-- union_0_0&#45;&gt;siblings_0_0 -->
<g id="edge2" class="edge"><title>union_0_0&#45;&gt;siblings_0_0</title>
<path fill="none" stroke="#2ecc71" d="M234.083,-434C240.913,-434 255.732,-434 262.715,-434"/>
</g>
<!-- Gloria -->
<g id="node2" class="node"><title>Gloria</title>
<polygon fill="white" stroke="#cccccc" points="198,-452 18,-452 18,-416 198,-416 198,-452"/>
<text text-anchor="middle" x="108" y="-429.8" font-family="Helvetica, Arial, sans-serif" font-size="14.00">Gloria</text>
</g>
<!-- Gloria&#45;&gt;union_0_0 -->
<g id="edge1" class="edge"><title>Gloria&#45;&gt;union_0_0</title>
<path fill="none" stroke="#2ecc71" d="M198.315,-434C210.938,-434 221.417,-434 226.733,-434"/>
</g>
<!-- union_0_1 -->
<g id="node5" class="node"><title>union_0_1</title>
<ellipse fill="#3498db" stroke="white" cx="230.5" cy="-380" rx="3.5" ry="3.5"/>
</g>
<!-- Gloria&#45;&gt;union_0_1 -->
<g id="edge4" class="edge"><title>Gloria&#45;&gt;union_0_1</title>
<path fill="none" stroke="#3498db" d="M198.038,-423.25C216.794,-423.25 231,-423.25 231,-423.25 231,-423.25 231,-394.147 231,-383.687"/>
</g>
<!-- Manny -->
<g id="node4" class="node"><title>Manny</title>
<polygon fill="white" stroke="#cccccc" points="479,-452 299,-452 299,-416 479,-416 479,-452"/>
<text text-anchor="middle" x="389" y="-429.8" font-family="Helvetica, Arial, sans-serif" font-size="14.00">Manny</text>
</g>
<!-- siblings_0_0&#45;&gt;Manny -->
<g id="edge3" class="edge"><title>siblings_0_0&#45;&gt;Manny</title>
<path fill="none" stroke="#2ecc71" d="M270.034,-434C270.034,-434 288.811,-434 288.811,-434"/>
<polygon fill="#2ecc71" stroke="#2ecc71" points="296.81,-424 296.811,-444 292.811,-444 292.81,-424 296.81,-424"/>
<polyline fill="none" stroke="#2ecc71" points="298.811,-434 288.811,-434 "/>
</g>
<!-- siblings_0_1 -->
<g id="node7" class="node"><title>siblings_0_1</title>
<polygon fill="#3498db" stroke="#cccccc" stroke-width="0" points="270,-380.5 263,-380.5 263,-379.5 270,-379.5 270,-380.5"/>
</g>
<!-- union_0_1&#45;&gt;siblings_0_1 -->
<g id="edge6" class="edge"><title>union_0_1&#45;&gt;siblings_0_1</title>
<path fill="none" stroke="#3498db" d="M234.083,-380C240.913,-380 255.732,-380 262.715,-380"/>
</g>
<!-- Jay -->
<g id="node6" class="node"><title>Jay</title>
<polygon fill="white" stroke="#cccccc" points="198,-398 18,-398 18,-362 198,-362 198,-398"/>
<text text-anchor="middle" x="108" y="-375.8" font-family="Helvetica, Arial, sans-serif" font-size="14.00">Jay</text>
</g>
<!-- Jay&#45;&gt;union_0_1 -->
<g id="edge5" class="edge"><title>Jay&#45;&gt;union_0_1</title>
<path fill="none" stroke="#3498db" d="M198.315,-380C210.938,-380 221.417,-380 226.733,-380"/>
</g>
<!-- union_3 -->
<g id="node21" class="node"><title>union_3</title>
<ellipse fill="#e74c3c" stroke="white" cx="230.5" cy="-208" rx="3.5" ry="3.5"/>
</g>
<!-- Jay&#45;&gt;union_3 -->
<g id="edge18" class="edge"><title>Jay&#45;&gt;union_3</title>
<path fill="none" stroke="#e74c3c" d="M198.038,-369.25C216.794,-369.25 231,-369.25 231,-369.25 231,-369.25 231,-235.673 231,-211.671"/>
</g>
<!-- Joe -->
<g id="node8" class="node"><title>Joe</title>
<polygon fill="white" stroke="#cccccc" points="479,-398 299,-398 299,-362 479,-362 479,-398"/>
<text text-anchor="middle" x="389" y="-375.8" font-family="Helvetica, Arial, sans-serif" font-size="14.00">Joe</text>
</g>
<!-- siblings_0_1&#45;&gt;Joe -->
<g id="edge7" class="edge"><title>siblings_0_1&#45;&gt;Joe</title>
<path fill="none" stroke="#3498db" d="M270.034,-380C270.034,-380 288.811,-380 288.811,-380"/>
<polygon fill="#3498db" stroke="#3498db" points="296.81,-370 296.811,-390 292.811,-390 292.81,-370 296.81,-370"/>
<polyline fill="none" stroke="#3498db" points="298.811,-380 288.811,-380 "/>
</g>
<!-- union_1_0 -->
<g id="node9" class="node"><title>union_1_0</title>
<ellipse fill="#34495e" stroke="white" cx="511.5" cy="-235" rx="3.5" ry="3.5"/>
</g>
<!-- siblings_1_0 -->
<g id="node12" class="node"><title>siblings_1_0</title>
<polygon fill="#34495e" stroke="#cccccc" stroke-width="0" points="551,-235.5 544,-235.5 544,-234.5 551,-234.5 551,-235.5"/>
</g>
<!-- union_1_0&#45;&gt;siblings_1_0 -->
<g id="edge10" class="edge"><title>union_1_0&#45;&gt;siblings_1_0</title>
<path fill="none" stroke="#34495e" d="M515.083,-235C521.913,-235 536.732,-235 543.715,-235"/>
</g>
<!-- Phil -->
<g id="node10" class="node"><title>Phil</title>
<polygon fill="white" stroke="#cccccc" points="479,-280 299,-280 299,-244 479,-244 479,-280"/>
<text text-anchor="middle" x="389" y="-257.8" font-family="Helvetica, Arial, sans-serif" font-size="14.00">Phil</text>
</g>
<!-- Phil&#45;&gt;union_1_0 -->
<g id="edge8" class="edge"><title>Phil&#45;&gt;union_1_0</title>
<path fill="none" stroke="#34495e" d="M479.038,-248.5C497.794,-248.5 512,-248.5 512,-248.5 512,-248.5 512,-242.686 512,-238.689"/>
</g>
<!-- Claire -->
<g id="node11" class="node"><title>Claire</title>
<polygon fill="white" stroke="#cccccc" points="479,-226 299,-226 299,-190 479,-190 479,-226"/>
<text text-anchor="middle" x="389" y="-203.8" font-family="Helvetica, Arial, sans-serif" font-size="14.00">Claire</text>
</g>
<!-- Claire&#45;&gt;union_1_0 -->
<g id="edge9" class="edge"><title>Claire&#45;&gt;union_1_0</title>
<path fill="none" stroke="#34495e" d="M479.116,-221.5C498.348,-221.5 513,-221.5 513,-221.5 513,-221.5 513,-227.594 513,-231.593"/>
</g>
<!-- Alex -->
<g id="node13" class="node"><title>Alex</title>
<polygon fill="white" stroke="#cccccc" points="760,-199 580,-199 580,-163 760,-163 760,-199"/>
<text text-anchor="middle" x="670" y="-176.8" font-family="Helvetica, Arial, sans-serif" font-size="14.00">Alex</text>
</g>
<!-- siblings_1_0&#45;&gt;Alex -->
<g id="edge11" class="edge"><title>siblings_1_0&#45;&gt;Alex</title>
<path fill="none" stroke="#34495e" d="M548,-234.297C548,-228.919 548,-194.5 548,-194.5 548,-194.5 569.736,-194.5 569.736,-194.5"/>
<polygon fill="#34495e" stroke="#34495e" points="577.735,-184.5 577.736,-204.5 573.736,-204.5 573.735,-184.5 577.735,-184.5"/>
<polyline fill="none" stroke="#34495e" points="579.736,-194.5 569.736,-194.5 "/>
</g>
<!-- Luke -->
<g id="node14" class="node"><title>Luke</title>
<polygon fill="white" stroke="#cccccc" points="760,-253 580,-253 580,-217 760,-217 760,-253"/>
<text text-anchor="middle" x="670" y="-230.8" font-family="Helvetica, Arial, sans-serif" font-size="14.00">Luke</text>
</g>
<!-- siblings_1_0&#45;&gt;Luke -->
<g id="edge12" class="edge"><title>siblings_1_0&#45;&gt;Luke</title>
<path fill="none" stroke="#34495e" d="M551.034,-235C551.034,-235 569.811,-235 569.811,-235"/>
<polygon fill="#34495e" stroke="#34495e" points="577.81,-225 577.811,-245 573.811,-245 573.81,-225 577.81,-225"/>
<polyline fill="none" stroke="#34495e" points="579.811,-235 569.811,-235 "/>
</g>
<!-- Haley -->
<g id="node15" class="node"><title>Haley</title>
<polygon fill="white" stroke="#cccccc" points="760,-307 580,-307 580,-271 760,-271 760,-307"/>
<text text-anchor="middle" x="670" y="-284.8" font-family="Helvetica, Arial, sans-serif" font-size="14.00">Haley</text>
</g>
<!-- siblings_1_0&#45;&gt;Haley -->
<g id="edge13" class="edge"><title>siblings_1_0&#45;&gt;Haley</title>
<path fill="none" stroke="#34495e" d="M548,-235.703C548,-241.081 548,-275.5 548,-275.5 548,-275.5 569.736,-275.5 569.736,-275.5"/>
<polygon fill="#34495e" stroke="#34495e" points="577.735,-265.5 577.736,-285.5 573.736,-285.5 573.735,-265.5 577.735,-265.5"/>
<polyline fill="none" stroke="#34495e" points="579.736,-275.5 569.736,-275.5 "/>
</g>
<!-- union_2_0 -->
<g id="node16" class="node"><title>union_2_0</title>
<ellipse fill="#e67e22" stroke="white" cx="511.5" cy="-63" rx="3.5" ry="3.5"/>
</g>
<!-- siblings_2_0 -->
<g id="node19" class="node"><title>siblings_2_0</title>
<polygon fill="#e67e22" stroke="#cccccc" stroke-width="0" points="551,-63.5 544,-63.5 544,-62.5 551,-62.5 551,-63.5"/>
</g>
<!-- union_2_0&#45;&gt;siblings_2_0 -->
<g id="edge16" class="edge"><title>union_2_0&#45;&gt;siblings_2_0</title>
<path fill="none" stroke="#e67e22" d="M515.083,-63C521.913,-63 536.732,-63 543.715,-63"/>
</g>
<!-- Cam -->
<g id="node17" class="node"><title>Cam</title>
<polygon fill="white" stroke="#cccccc" points="479,-108 299,-108 299,-72 479,-72 479,-108"/>
<text text-anchor="middle" x="389" y="-85.8" font-family="Helvetica, Arial, sans-serif" font-size="14.00">Cam</text>
</g>
<!-- Cam&#45;&gt;union_2_0 -->
<g id="edge14" class="edge"><title>Cam&#45;&gt;union_2_0</title>
<path fill="none" stroke="#e67e22" d="M479.264,-76.5C497.391,-76.5 511,-76.5 511,-76.5 511,-76.5 511,-70.686 511,-66.6889"/>
</g>
<!-- Mitchell -->
<g id="node18" class="node"><title>Mitchell</title>
<polygon fill="white" stroke="#cccccc" points="479,-54 299,-54 299,-18 479,-18 479,-54"/>
<text text-anchor="middle" x="389" y="-31.8" font-family="Helvetica, Arial, sans-serif" font-size="14.00">Mitchell</text>
</g>
<!-- Mitchell&#45;&gt;union_2_0 -->
<g id="edge15" class="edge"><title>Mitchell&#45;&gt;union_2_0</title>
<path fill="none" stroke="#e67e22" d="M479.038,-49.5C497.794,-49.5 512,-49.5 512,-49.5 512,-49.5 512,-55.314 512,-59.3111"/>
</g>
<!-- Lily -->
<g id="node20" class="node"><title>Lily</title>
<polygon fill="white" stroke="#cccccc" points="760,-81 580,-81 580,-45 760,-45 760,-81"/>
<text text-anchor="middle" x="670" y="-58.8" font-family="Helvetica, Arial, sans-serif" font-size="14.00">Lily</text>
</g>
<!-- siblings_2_0&#45;&gt;Lily -->
<g id="edge17" class="edge"><title>siblings_2_0&#45;&gt;Lily</title>
<path fill="none" stroke="#e67e22" stroke-width="0.25" stroke-dasharray="5,2" d="M551.034,-63C551.034,-63 569.811,-63 569.811,-63"/>
<polygon fill="#e67e22" stroke="#e67e22" stroke-width="0.25" points="577.81,-53 577.811,-73 573.811,-73.0001 573.81,-53.0001 577.81,-53"/>
<polyline fill="none" stroke="#e67e22" stroke-width="0.25" points="579.811,-63 569.811,-63.0001 "/>
</g>
<!-- siblings_3 -->
<g id="node23" class="node"><title>siblings_3</title>
<polygon fill="#e74c3c" stroke="#cccccc" stroke-width="0" points="270,-208.5 263,-208.5 263,-207.5 270,-207.5 270,-208.5"/>
</g>
<!-- union_3&#45;&gt;siblings_3 -->
<g id="edge20" class="edge"><title>union_3&#45;&gt;siblings_3</title>
<path fill="none" stroke="#e74c3c" d="M234.083,-208C240.913,-208 255.732,-208 262.715,-208"/>
</g>
<!-- Dede -->
<g id="node22" class="node"><title>Dede</title>
<polygon fill="#f4f4f4" stroke="#cccccc" stroke-width="0" points="198,-226 18,-226 18,-190 198,-190 198,-226"/>
<text text-anchor="middle" x="108" y="-203.8" font-family="Helvetica, Arial, sans-serif" font-size="14.00">Dede</text>
</g>
<!-- Dede&#45;&gt;union_3 -->
<g id="edge19" class="edge"><title>Dede&#45;&gt;union_3</title>
<path fill="none" stroke="#e74c3c" d="M198.315,-208C210.938,-208 221.417,-208 226.733,-208"/>
</g>
<!-- siblings_3&#45;&gt;Claire -->
<g id="edge21" class="edge"><title>siblings_3&#45;&gt;Claire</title>
<path fill="none" stroke="#e74c3c" d="M270.034,-208C270.034,-208 288.811,-208 288.811,-208"/>
<polygon fill="#e74c3c" stroke="#e74c3c" points="296.81,-198 296.811,-218 292.811,-218 292.81,-198 296.81,-198"/>
<polyline fill="none" stroke="#e74c3c" points="298.811,-208 288.811,-208 "/>
</g>
<!-- siblings_3&#45;&gt;Mitchell -->
<g id="edge22" class="edge"><title>siblings_3&#45;&gt;Mitchell</title>
<path fill="none" stroke="#e74c3c" d="M267,-207.233C267,-194.825 267,-36 267,-36 267,-36 288.736,-36 288.736,-36"/>
<polygon fill="#e74c3c" stroke="#e74c3c" points="296.735,-26 296.736,-46 292.736,-46.0001 292.735,-26.0001 296.735,-26"/>
<polyline fill="none" stroke="#e74c3c" points="298.736,-36 288.736,-36.0001 "/>
</g>
</g>
</svg>
<?xml version="1.0" encoding="UTF-8" standalone="no"?>
<!DOCTYPE svg PUBLIC "-//W3C//DTD SVG 1.1//EN"
 "http://www.w3.org/Graphics/SVG/1.1/DTD/svg11.dtd">
<!-- Generated by graphviz version 2.38.0 (20140413.2041)
 -->
<!-- Title: G Pages: 1 -->
<svg width="812pt" height="970pt"
 viewBox="0.00 0.00 812.00 970.00" xmlns="http://www.w3.org/2000/svg" xmlns:xlink="http://www.w3.org/1999/xlink">
<g id="graph0" class="graph" transform="scale(1 1) rotate(0) translate(4 966)">
<title>G</title>
<polygon fill="white" stroke="none" points="-4,4 -4,-966 808,-966 808,4 -4,4"/>
<g id="clust1" class="cluster"><title>cluster_family_0</title>
<polygon fill="#fafafa" stroke="#fafafa" points="34,-763 34,-954 796,-954 796,-763 34,-763"/>
<text text-anchor="start" x="42" y="-936.6" font-family="Helvetica, Arial, sans-serif" font-weight="bold" font-size="16.00">Potter</text>
</g>
<g id="clust2" class="cluster"><title>cluster_family_0_0</title>
</g>
<g id="clust7" class="cluster"><title>cluster_family_1</title>
<polygon fill="#fafafa" stroke="#fafafa" points="34,-618 34,-755 515,-755 515,-618 34,-618"/>
<text text-anchor="start" x="42" y="-737.6" font-family="Helvetica, Arial, sans-serif" font-weight="bold" font-size="16.00">Dursley</text>
</g>
<g id="clust11" class="cluster"><title>cluster_family_2</title>
<polygon fill="#fafafa" stroke="#fafafa" points="34,-153 34,-610 796,-610 796,-153 34,-153"/>
<text text-anchor="start" x="42" y="-592.6" font-family="Helvetica, Arial, sans-serif" font-weight="bold" font-size="16.00">Weasley</text>
</g>
<g id="clust12" class="cluster"><title>cluster_family_2_0</title>
</g>
<g id="clust15" class="cluster"><title>cluster_family_2_1</title>
</g>
<g id="clust17" class="cluster"><title>cluster_family_2_2</title>
</g>
<g id="clust22" class="cluster"><title>cluster_family_3</title>
<polygon fill="#fafafa" stroke="#fafafa" points="34,-8 34,-145 306,-145 306,-8 34,-8"/>
<text text-anchor="start" x="42" y="-127.6" font-family="Helvetica, Arial, sans-serif" font-weight="bold" font-size="16.00">Granger</text>
</g>
<g id="clust25" class="cluster"><title>cluster_family_4</title>
</g>
<!-- union_0_0 -->
<g id="node1" class="node"><title>union_0_0</title>
<ellipse fill="#2ecc71" stroke="white" cx="537.5" cy="-845" rx="3.5" ry="3.5"/>
</g>
<!-- siblings_0_0 -->
<g id="node4" class="node"><title>siblings_0_0</title>
<polygon fill="#2ecc71" stroke="#cccccc" stroke-width="0" points="577,-845.5 570,-845.5 570,-844.5 577,-844.5 577,-845.5"/>
</g>
<!-- union_0_0&#45;&gt;siblings_0_0 -->
<g id="edge3" class="edge"><title>union_0_0&#45;&gt;siblings_0_0</title>
<path fill="none" stroke="#2ecc71" d="M541.083,-845C547.913,-845 562.732,-845 569.715,-845"/>
</g>
<!-- Harry -->
<g id="node2" class="node"><title>Harry</title>
<polygon fill="white" stroke="#cccccc" points="505,-863 325,-863 325,-827 505,-827 505,-863"/>
<text text-anchor="middle" x="415" y="-840.8" font-family="Helvetica, Arial, sans-serif" font-size="14.00">Harry</text>
</g>
<!-- Harry&#45;&gt;union_0_0 -->
<g id="edge1" class="edge"><title>Harry&#45;&gt;union_0_0</title>
<path fill="none" stroke="#2ecc71" d="M505.315,-845C517.938,-845 528.417,-845 533.733,-845"/>
</g>
<!-- Ginny -->
<g id="node3" class="node"><title>Ginny</title>
<polygon fill="white" stroke="#cccccc" points="505,-809 325,-809 325,-773 505,-773 505,-809"/>
<text text-anchor="middle" x="415" y="-786.8" font-family="Helvetica, Arial, sans-serif" font-size="14.00">Ginny</text>
</g>
<!-- Ginny&#45;&gt;union_0_0 -->
<g id="edge2" class="edge"><title>Ginny&#45;&gt;union_0_0</title>
<path fill="none" stroke="#2ecc71" d="M505.264,-797C523.391,-797 537,-797 537,-797 537,-797 537,-829.918 537,-841.234"/>
</g>
<!-- James II -->
<g id="node5" class="node"><title>James II</title>
<polygon fill="white" stroke="#cccccc" points="786,-917 606,-917 606,-881 786,-881 786,-917"/>
<text text-anchor="middle" x="696" y="-894.8" font-family="Helvetica, Arial, sans-serif" font-size="14.00">James II</text>
</g>
<!-- siblings_0_0&#45;&gt;James II -->
<g id="edge4" class="edge"><title>siblings_0_0&#45;&gt;James II</title>
<path fill="none" stroke="#2ecc71" d="M574,-845.606C574,-851.539 574,-899 574,-899 574,-899 595.736,-899 595.736,-899"/>
<polygon fill="#2ecc71" stroke="#2ecc71" points="603.735,-889 603.736,-909 599.736,-909 599.735,-889 603.735,-889"/>
<polyline fill="none" stroke="#2ecc71" points="605.736,-899 595.736,-899 "/>
</g>
<!-- Lily II -->
<g id="node6" class="node"><title>Lily II</title>
<polygon fill="white" stroke="#cccccc" points="786,-809 606,-809 606,-773 786,-773 786,-809"/>
<text text-anchor="middle" x="696" y="-786.8" font-family="Helvetica, Arial, sans-serif" font-size="14.00">Lily II</text>
</g>
<!-- siblings_0_0&#45;&gt;Lily II -->
<g id="edge5" class="edge"><title>siblings_0_0&#45;&gt;Lily II</title>
<path fill="none" stroke="#2ecc71" d="M573,-844.326C573,-837.734 573,-785 573,-785 573,-785 595.962,-785 595.962,-785"/>
<polygon fill="#2ecc71" stroke="#2ecc71" points="603.962,-775 603.962,-795 599.962,-795 599.962,-775 603.962,-775"/>
<polyline fill="none" stroke="#2ecc71" points="605.962,-785 595.962,-785 "/>
</g>
<!-- Albus -->
<g id="node7" class="node"><title>Albus</title>
<polygon fill="white" stroke="#cccccc" points="786,-863 606,-863 606,-827 786,-827 786,-863"/>
<text text-anchor="middle" x="696" y="-840.8" font-family="Helvetica, Arial, sans-serif" font-size="14.00">Albus</text>
</g>
<!-- siblings_0_0&#45;&gt;Albus -->
<g id="edge6" class="edge"><title>siblings_0_0&#45;&gt;Albus</title>
<path fill="none" stroke="#2ecc71" d="M577.034,-845C577.034,-845 595.811,-845 595.811,-845"/>
<polygon fill="#2ecc71" stroke="#2ecc71" points="603.81,-835 603.811,-855 599.811,-855 599.81,-835 603.81,-835"/>
<polyline fill="none" stroke="#2ecc71" points="605.811,-845 595.811,-845 "/>
</g>
<!-- union_0 -->
<g id="node8" class="node"><title>union_0</title>
<ellipse fill="#1abc9c" stroke="white" cx="256.5" cy="-845" rx="3.5" ry="3.5"/>
</g>
<!-- siblings_0 -->
<g id="node11" class="node"><title>siblings_0</title>
<polygon fill="#1abc9c" stroke="#cccccc" stroke-width="0" points="296,-845.5 289,-845.5 289,-844.5 296,-844.5 296,-845.5"/>
</g>
<!-- union_0&#45;&gt;siblings_0 -->
<g id="edge9" class="edge"><title>union_0&#45;&gt;siblings_0</title>
<path fill="none" stroke="#1abc9c" d="M260.083,-845C266.913,-845 281.732,-845 288.715,-845"/>
</g>
<!-- James -->
<g id="node9" class="node"><title>James</title>
<g id="a_node9"><a xlink:href="http://harrypotter.wikia.com/wiki/James_Potter_I" xlink:title="&lt;TABLE&gt;">
<polygon fill="white" stroke="#cccccc" points="224,-875 44,-875 44,-833 224,-833 224,-875"/>
<text text-anchor="start" x="113.387" y="-856.4" font-family="Helvetica, Arial, sans-serif" font-size="14.00">James</text>
<text text-anchor="start" x="101.771" y="-842" font-family="Helvetica, Arial, sans-serif" font-size="10.00" fill="#aaaaaa">James Potter I</text>
</a>
</g>
</g>
<!-- James&#45;&gt;union_0 -->
<g id="edge7" class="edge"><title>James&#45;&gt;union_0</title>
<path fill="none" stroke="#1abc9c" d="M224.315,-845C236.938,-845 247.417,-845 252.733,-845"/>
</g>
<!-- Lily -->
<g id="node10" class="node"><title>Lily</title>
<g id="a_node10"><a xlink:href="http://harrypotter.wikia.com/wiki/Lily_J._Potter" xlink:title="&lt;TABLE&gt;">
<polygon fill="white" stroke="#cccccc" points="224,-815 44,-815 44,-773 224,-773 224,-815"/>
<text text-anchor="start" x="124.002" y="-796.4" font-family="Helvetica, Arial, sans-serif" font-size="14.00">Lily</text>
<text text-anchor="start" x="111.719" y="-782" font-family="Helvetica, Arial, sans-serif" font-size="10.00" fill="#aaaaaa">Lily Evans</text>
</a>
</g>
</g>
<!-- Lily&#45;&gt;union_0 -->
<g id="edge8" class="edge"><title>Lily&#45;&gt;union_0</title>
<path fill="none" stroke="#1abc9c" d="M224.038,-797C242.794,-797 257,-797 257,-797 257,-797 257,-829.918 257,-841.234"/>
</g>
<!-- siblings_0&#45;&gt;Harry -->
<g id="edge10" class="edge"><title>siblings_0&#45;&gt;Harry</title>
<path fill="none" stroke="#1abc9c" d="M296.034,-845C296.034,-845 314.811,-845 314.811,-845"/>
<polygon fill="#1abc9c" stroke="#1abc9c" points="322.81,-835 322.811,-855 318.811,-855 318.81,-835 322.81,-835"/>
<polyline fill="none" stroke="#1abc9c" points="324.811,-845 314.811,-845 "/>
</g>
<!-- union_1 -->
<g id="node12" class="node"><title>union_1</title>
<ellipse fill="#3498db" stroke="white" cx="256.5" cy="-700" rx="3.5" ry="3.5"/>
</g>
<!-- siblings_1 -->
<g id="node15" class="node"><title>siblings_1</title>
<polygon fill="#3498db" stroke="#cccccc" stroke-width="0" points="296,-700.5 289,-700.5 289,-699.5 296,-699.5 296,-700.5"/>
</g>
<!-- union_1&#45;&gt;siblings_1 -->
<g id="edge13" class="edge"><title>union_1&#45;&gt;siblings_1</title>
<path fill="none" stroke="#3498db" d="M260.083,-700C266.913,-700 281.732,-700 288.715,-700"/>
</g>
<!-- Vernon -->
<g id="node13" class="node"><title>Vernon</title>
<polygon fill="white" stroke="#cccccc" points="224,-718 44,-718 44,-682 224,-682 224,-718"/>
<text text-anchor="middle" x="134" y="-695.8" font-family="Helvetica, Arial, sans-serif" font-size="14.00">Vernon</text>
</g>
<!-- Vernon&#45;&gt;union_1 -->
<g id="edge11" class="edge"><title>Vernon&#45;&gt;union_1</title>
<path fill="none" stroke="#3498db" d="M224.315,-700C236.938,-700 247.417,-700 252.733,-700"/>
</g>
<!-- Petunia -->
<g id="node14" class="node"><title>Petunia</title>
<polygon fill="white" stroke="#cccccc" points="224,-664 44,-664 44,-628 224,-628 224,-664"/>
<text text-anchor="middle" x="134" y="-641.8" font-family="Helvetica, Arial, sans-serif" font-size="14.00">Petunia</text>
</g>
<!-- Petunia&#45;&gt;union_1 -->
<g id="edge12" class="edge"><title>Petunia&#45;&gt;union_1</title>
<path fill="none" stroke="#3498db" d="M224.264,-646C242.391,-646 256,-646 256,-646 256,-646 256,-684.443 256,-696.457"/>
</g>
<!-- siblings_1&#45;&gt;Harry -->
<g id="edge15" class="edge"><title>siblings_1&#45;&gt;Harry</title>
<path fill="none" stroke="#3498db" stroke-width="0.25" stroke-dasharray="5,2" d="M293,-700.876C293,-712.566 293,-837.25 293,-837.25 293,-837.25 314.736,-837.25 314.736,-837.25"/>
<polygon fill="#3498db" stroke="#3498db" stroke-width="0.25" points="322.735,-827.25 322.736,-847.25 318.736,-847.25 318.735,-827.25 322.735,-827.25"/>
<polyline fill="none" stroke="#3498db" stroke-width="0.25" points="324.736,-837.25 314.736,-837.25 "/>
</g>
<!-- Dudley -->
<g id="node16" class="node"><title>Dudley</title>
<polygon fill="white" stroke="#cccccc" points="505,-718 325,-718 325,-682 505,-682 505,-718"/>
<text text-anchor="middle" x="415" y="-695.8" font-family="Helvetica, Arial, sans-serif" font-size="14.00">Dudley</text>
</g>
<!-- siblings_1&#45;&gt;Dudley -->
<g id="edge14" class="edge"><title>siblings_1&#45;&gt;Dudley</title>
<path fill="none" stroke="#3498db" d="M296.034,-700C296.034,-700 314.811,-700 314.811,-700"/>
<polygon fill="#3498db" stroke="#3498db" points="322.81,-690 322.811,-710 318.811,-710 318.81,-690 322.81,-690"/>
<polyline fill="none" stroke="#3498db" points="324.811,-700 314.811,-700 "/>
</g>
<!-- union_2_0 -->
<g id="node17" class="node"><title>union_2_0</title>
<ellipse fill="#34495e" stroke="white" cx="537.5" cy="-347" rx="3.5" ry="3.5"/>
</g>
<!-- siblings_2_0 -->
<g id="node20" class="node"><title>siblings_2_0</title>
<polygon fill="#34495e" stroke="#cccccc" stroke-width="0" points="577,-347.5 570,-347.5 570,-346.5 577,-346.5 577,-347.5"/>
</g>
<!-- union_2_0&#45;&gt;siblings_2_0 -->
<g id="edge18" class="edge"><title>union_2_0&#45;&gt;siblings_2_0</title>
<path fill="none" stroke="#34495e" d="M541.083,-347C547.913,-347 562.732,-347 569.715,-347"/>
</g>
<!-- Bill -->
<g id="node18" class="node"><title>Bill</title>
<polygon fill="white" stroke="#cccccc" points="505,-411 325,-411 325,-375 505,-375 505,-411"/>
<text text-anchor="middle" x="415" y="-388.8" font-family="Helvetica, Arial, sans-serif" font-size="14.00">Bill</text>
</g>
<!-- Bill&#45;&gt;union_2_0 -->
<g id="edge16" class="edge"><title>Bill&#45;&gt;union_2_0</title>
<path fill="none" stroke="#34495e" d="M505.264,-379C523.391,-379 537,-379 537,-379 537,-379 537,-359.469 537,-350.924"/>
</g>
<!-- Fleur -->
<g id="node19" class="node"><title>Fleur</title>
<g id="a_node19"><a xlink:href="http://harrypotter.wikia.com/wiki/Fleur_Delacour" xlink:title="&lt;TABLE&gt;">
<polygon fill="white" stroke="#cccccc" points="505,-357 325,-357 325,-315 505,-315 505,-357"/>
<text text-anchor="start" x="399.558" y="-338.4" font-family="Helvetica, Arial, sans-serif" font-size="14.00">Fleur</text>
<text text-anchor="start" x="382.721" y="-324" font-family="Helvetica, Arial, sans-serif" font-size="10.00" fill="#aaaaaa">Fleur Delacour</text>
</a>
</g>
</g>
<!-- Fleur&#45;&gt;union_2_0 -->
<g id="edge17" class="edge"><title>Fleur&#45;&gt;union_2_0</title>
<path fill="none" stroke="#34495e" d="M505.315,-347C517.938,-347 528.417,-347 533.733,-347"/>
</g>
<!-- Victoire -->
<g id="node21" class="node"><title>Victoire</title>
<polygon fill="white" stroke="#cccccc" points="786,-419 606,-419 606,-383 786,-383 786,-419"/>
<text text-anchor="middle" x="696" y="-396.8" font-family="Helvetica, Arial, sans-serif" font-size="14.00">Victoire</text>
</g>
<!-- siblings_2_0&#45;&gt;Victoire -->
<g id="edge19" class="edge"><title>siblings_2_0&#45;&gt;Victoire</title>
<path fill="none" stroke="#34495e" d="M575,-347.562C575,-353.055 575,-397 575,-397 575,-397 595.846,-397 595.846,-397"/>
<polygon fill="#34495e" stroke="#34495e" points="603.846,-387 603.847,-407 599.847,-407 599.846,-387 603.846,-387"/>
<polyline fill="none" stroke="#34495e" points="605.846,-397 595.846,-397 "/>
</g>
<!-- Dominique -->
<g id="node22" class="node"><title>Dominique</title>
<polygon fill="white" stroke="#cccccc" points="786,-311 606,-311 606,-275 786,-275 786,-311"/>
<text text-anchor="middle" x="696" y="-288.8" font-family="Helvetica, Arial, sans-serif" font-size="14.00">Dominique</text>
</g>
<!-- siblings_2_0&#45;&gt;Dominique -->
<g id="edge20" class="edge"><title>siblings_2_0&#45;&gt;Dominique</title>
<path fill="none" stroke="#34495e" d="M573,-346.394C573,-340.461 573,-293 573,-293 573,-293 595.962,-293 595.962,-293"/>
<polygon fill="#34495e" stroke="#34495e" points="603.962,-283 603.962,-303 599.962,-303 599.962,-283 603.962,-283"/>
<polyline fill="none" stroke="#34495e" points="605.962,-293 595.962,-293 "/>
</g>
<!-- Louis -->
<g id="node23" class="node"><title>Louis</title>
<polygon fill="white" stroke="#cccccc" points="786,-365 606,-365 606,-329 786,-329 786,-365"/>
<text text-anchor="middle" x="696" y="-342.8" font-family="Helvetica, Arial, sans-serif" font-size="14.00">Louis</text>
</g>
<!-- siblings_2_0&#45;&gt;Louis -->
<g id="edge21" class="edge"><title>siblings_2_0&#45;&gt;Louis</title>
<path fill="none" stroke="#34495e" d="M577.034,-347C577.034,-347 595.811,-347 595.811,-347"/>
<polygon fill="#34495e" stroke="#34495e" points="603.81,-337 603.811,-357 599.811,-357 599.81,-337 603.81,-337"/>
<polyline fill="none" stroke="#34495e" points="605.811,-347 595.811,-347 "/>
</g>
<!-- union_2_1 -->
<g id="node24" class="node"><title>union_2_1</title>
<ellipse fill="#f1c40f" stroke="white" cx="537.5" cy="-474" rx="3.5" ry="3.5"/>
</g>
<!-- George -->
<g id="node25" class="node"><title>George</title>
<polygon fill="white" stroke="#cccccc" points="505,-519 325,-519 325,-483 505,-483 505,-519"/>
<text text-anchor="middle" x="415" y="-496.8" font-family="Helvetica, Arial, sans-serif" font-size="14.00">George</text>
</g>
<!-- George&#45;&gt;union_2_1 -->
<g id="edge22" class="edge"><title>George&#45;&gt;union_2_1</title>
<path fill="none" stroke="#f1c40f" d="M505.116,-501C524.348,-501 539,-501 539,-501 539,-501 539,-484.521 539,-477.311"/>
</g>
<!-- Angelina -->
<g id="node26" class="node"><title>Angelina</title>
<polygon fill="white" stroke="#cccccc" points="505,-465 325,-465 325,-429 505,-429 505,-465"/>
<text text-anchor="middle" x="415" y="-442.8" font-family="Helvetica, Arial, sans-serif" font-size="14.00">Angelina</text>
</g>
<!-- Angelina&#45;&gt;union_2_1 -->
<g id="edge23" class="edge"><title>Angelina&#45;&gt;union_2_1</title>
<path fill="none" stroke="#f1c40f" d="M505.116,-447C524.348,-447 539,-447 539,-447 539,-447 539,-463.479 539,-470.689"/>
</g>
<!-- union_2_2 -->
<g id="node27" class="node"><title>union_2_2</title>
<ellipse fill="#e67e22" stroke="white" cx="537.5" cy="-209" rx="3.5" ry="3.5"/>
</g>
<!-- siblings_2_2 -->
<g id="node30" class="node"><title>siblings_2_2</title>
<polygon fill="#e67e22" stroke="#cccccc" stroke-width="0" points="577,-209.5 570,-209.5 570,-208.5 577,-208.5 577,-209.5"/>
</g>
<!-- union_2_2&#45;&gt;siblings_2_2 -->
<g id="edge26" class="edge"><title>union_2_2&#45;&gt;siblings_2_2</title>
<path fill="none" stroke="#e67e22" d="M541.083,-209C547.913,-209 562.732,-209 569.715,-209"/>
</g>
<!-- Ron -->
<g id="node28" class="node"><title>Ron</title>
<g id="a_node28"><a xlink:href="http://harrypotter.wikia.com/wiki/Ronald_Weasley" xlink:title="&lt;TABLE&gt;">
<polygon fill="white" stroke="#cccccc" points="505,-265 325,-265 325,-223 505,-223 505,-265"/>
<text text-anchor="start" x="402.664" y="-246.4" font-family="Helvetica, Arial, sans-serif" font-size="14.00">Ron</text>
<text text-anchor="start" x="385.774" y="-232" font-family="Helvetica, Arial, sans-serif" font-size="10.00" fill="#aaaaaa">Ron Weasley</text>
</a>
</g>
</g>
<!-- Ron&#45;&gt;union_2_2 -->
<g id="edge24" class="edge"><title>Ron&#45;&gt;union_2_2</title>
<path fill="none" stroke="#e67e22" d="M505.038,-233.667C523.794,-233.667 538,-233.667 538,-233.667 538,-233.667 538,-219.792 538,-212.854"/>
</g>
<!-- Hermione -->
<g id="node29" class="node"><title>Hermione</title>
<g id="a_node29"><a xlink:href="http://harrypotter.wikia.com/wiki/Hermione_Granger" xlink:title="&lt;TABLE&gt;">
<polygon fill="white" stroke="#cccccc" points="505,-205 325,-205 325,-163 505,-163 505,-205"/>
<text text-anchor="start" x="384.668" y="-186.4" font-family="Helvetica, Arial, sans-serif" font-size="14.00">Hermione</text>
<text text-anchor="start" x="373.608" y="-172" font-family="Helvetica, Arial, sans-serif" font-size="10.00" fill="#aaaaaa">Hermione Granger</text>
</a>
</g>
</g>
<!-- Hermione&#45;&gt;union_2_2 -->
<g id="edge25" class="edge"><title>Hermione&#45;&gt;union_2_2</title>
<path fill="none" stroke="#e67e22" d="M505.038,-189C523.794,-189 538,-189 538,-189 538,-189 538,-199.786 538,-205.516"/>
</g>
<!-- Rose -->
<g id="node31" class="node"><title>Rose</title>
<polygon fill="white" stroke="#cccccc" points="786,-201 606,-201 606,-165 786,-165 786,-201"/>
<text text-anchor="middle" x="696" y="-178.8" font-family="Helvetica, Arial, sans-serif" font-size="14.00">Rose</text>
</g>
<!-- siblings_2_2&#45;&gt;Rose -->
<g id="edge27" class="edge"><title>siblings_2_2&#45;&gt;Rose</title>
<path fill="none" stroke="#e67e22" d="M574,-208.209C574,-203.281 574,-177 574,-177 574,-177 595.736,-177 595.736,-177"/>
<polygon fill="#e67e22" stroke="#e67e22" points="603.735,-167 603.736,-187 599.736,-187 599.735,-167 603.735,-167"/>
<polyline fill="none" stroke="#e67e22" points="605.736,-177 595.736,-177 "/>
</g>
<!-- Hugo -->
<g id="node32" class="node"><title>Hugo</title>
<polygon fill="white" stroke="#cccccc" points="786,-255 606,-255 606,-219 786,-219 786,-255"/>
<text text-anchor="middle" x="696" y="-232.8" font-family="Helvetica, Arial, sans-serif" font-size="14.00">Hugo</text>
</g>
<!-- siblings_2_2&#45;&gt;Hugo -->
<g id="edge28" class="edge"><title>siblings_2_2&#45;&gt;Hugo</title>
<path fill="none" stroke="#e67e22" d="M575,-209.873C575,-215.314 575,-244.333 575,-244.333 575,-244.333 595.846,-244.333 595.846,-244.333"/>
<polygon fill="#e67e22" stroke="#e67e22" points="603.846,-234.333 603.847,-254.333 599.847,-254.333 599.846,-234.333 603.846,-234.333"/>
<polyline fill="none" stroke="#e67e22" points="605.846,-244.333 595.846,-244.333 "/>
</g>
<!-- union_2 -->
<g id="node33" class="node"><title>union_2</title>
<ellipse fill="#9b59b6" stroke="white" cx="256.5" cy="-501" rx="3.5" ry="3.5"/>
</g>
<!-- siblings_2 -->
<g id="node36" class="node"><title>siblings_2</title>
<polygon fill="#9b59b6" stroke="#cccccc" stroke-width="0" points="296,-501.5 289,-501.5 289,-500.5 296,-500.5 296,-501.5"/>
</g>
<!-- union_2&#45;&gt;siblings_2 -->
<g id="edge31" class="edge"><title>union_2&#45;&gt;siblings_2</title>
<path fill="none" stroke="#9b59b6" d="M260.083,-501C266.913,-501 281.732,-501 288.715,-501"/>
</g>
<!-- Arthur -->
<g id="node34" class="node"><title>Arthur</title>
<polygon fill="white" stroke="#cccccc" points="224,-546 44,-546 44,-510 224,-510 224,-546"/>
<text text-anchor="middle" x="134" y="-523.8" font-family="Helvetica, Arial, sans-serif" font-size="14.00">Arthur</text>
</g>
<!-- Arthur&#45;&gt;union_2 -->
<g id="edge29" class="edge"><title>Arthur&#45;&gt;union_2</title>
<path fill="none" stroke="#9b59b6" d="M224.116,-514.5C243.348,-514.5 258,-514.5 258,-514.5 258,-514.5 258,-508.406 258,-504.407"/>
</g>
<!-- Molly -->
<g id="node35" class="node"><title>Molly</title>
<polygon fill="white" stroke="#cccccc" points="224,-492 44,-492 44,-456 224,-456 224,-492"/>
<text text-anchor="middle" x="134" y="-469.8" font-family="Helvetica, Arial, sans-serif" font-size="14.00">Molly</text>
</g>
<!-- Molly&#45;&gt;union_2 -->
<g id="edge30" class="edge"><title>Molly&#45;&gt;union_2</title>
<path fill="none" stroke="#9b59b6" d="M224.038,-487.5C242.794,-487.5 257,-487.5 257,-487.5 257,-487.5 257,-493.314 257,-497.311"/>
</g>
<!-- siblings_2&#45;&gt;Ginny -->
<g id="edge32" class="edge"><title>siblings_2&#45;&gt;Ginny</title>
<path fill="none" stroke="#9b59b6" d="M294,-501.667C294,-505.825 294,-528 294,-528 294,-528 311,-528 311,-528 311,-528 311,-785 311,-785 311,-785 314.596,-785 314.596,-785"/>
<polygon fill="#9b59b6" stroke="#9b59b6" points="322.596,-775 322.596,-795 318.596,-795 318.596,-775 322.596,-775"/>
<polyline fill="none" stroke="#9b59b6" points="324.596,-785 314.596,-785 "/>
</g>
<!-- siblings_2&#45;&gt;Bill -->
<g id="edge33" class="edge"><title>siblings_2&#45;&gt;Bill</title>
<path fill="none" stroke="#9b59b6" d="M293,-500.31C293,-491.112 293,-393 293,-393 293,-393 314.736,-393 314.736,-393"/>
<polygon fill="#9b59b6" stroke="#9b59b6" points="322.735,-383 322.736,-403 318.736,-403 318.735,-383 322.735,-383"/>
<polyline fill="none" stroke="#9b59b6" points="324.736,-393 314.736,-393 "/>
</g>
<!-- siblings_2&#45;&gt;George -->
<g id="edge34" class="edge"><title>siblings_2&#45;&gt;George</title>
<path fill="none" stroke="#9b59b6" d="M296.034,-501C296.034,-501 314.811,-501 314.811,-501"/>
<polygon fill="#9b59b6" stroke="#9b59b6" points="322.81,-491 322.811,-511 318.811,-511 318.81,-491 322.81,-491"/>
<polyline fill="none" stroke="#9b59b6" points="324.811,-501 314.811,-501 "/>
</g>
<!-- siblings_2&#45;&gt;Ron -->
<g id="edge35" class="edge"><title>siblings_2&#45;&gt;Ron</title>
<path fill="none" stroke="#9b59b6" d="M291,-500.263C291,-485.188 291,-244 291,-244 291,-244 314.884,-244 314.884,-244"/>
<polygon fill="#9b59b6" stroke="#9b59b6" points="322.883,-234 322.884,-254 318.884,-254 318.883,-234 322.883,-234"/>
<polyline fill="none" stroke="#9b59b6" points="324.884,-244 314.884,-244 "/>
</g>
<!-- Fred -->
<g id="node37" class="node"><title>Fred</title>
<polygon fill="white" stroke="#cccccc" points="505,-573 325,-573 325,-537 505,-537 505,-573"/>
<text text-anchor="middle" x="415" y="-550.8" font-family="Helvetica, Arial, sans-serif" font-size="14.00">Fred</text>
</g>
<!-- siblings_2&#45;&gt;Fred -->
<g id="edge36" class="edge"><title>siblings_2&#45;&gt;Fred</title>
<path fill="none" stroke="#9b59b6" d="M292,-501.703C292,-507.081 292,-541.5 292,-541.5 292,-541.5 314.962,-541.5 314.962,-541.5"/>
<polygon fill="#9b59b6" stroke="#9b59b6" points="322.962,-531.5 322.962,-551.5 318.962,-551.5 318.962,-531.5 322.962,-531.5"/>
<polyline fill="none" stroke="#9b59b6" points="324.962,-541.5 314.962,-541.5 "/>
</g>
<!-- union_3 -->
<g id="node38" class="node"><title>union_3</title>
<ellipse fill="#e74c3c" stroke="white" cx="256.5" cy="-90" rx="3.5" ry="3.5"/>
</g>
<!-- siblings_3 -->
<g id="node41" class="node"><title>siblings_3</title>
<polygon fill="#e74c3c" stroke="#cccccc" stroke-width="0" points="296,-90.5 289,-90.5 289,-89.5 296,-89.5 296,-90.5"/>
</g>
<!-- union_3&#45;&gt;siblings_3 -->
<g id="edge39" class="edge"><title>union_3&#45;&gt;siblings_3</title>
<path fill="none" stroke="#e74c3c" d="M260.083,-90C266.913,-90 281.732,-90 288.715,-90"/>
</g>
<!-- Mr Granger -->
<g id="node39" class="node"><title>Mr Granger</title>
<polygon fill="white" stroke="#cccccc" points="224,-108 44,-108 44,-72 224,-72 224,-108"/>
<text text-anchor="middle" x="134" y="-85.8" font-family="Helvetica, Arial, sans-serif" font-size="14.00">Mr Granger</text>
</g>
<!-- Mr Granger&#45;&gt;union_3 -->
<g id="edge37" class="edge"><title>Mr Granger&#45;&gt;union_3</title>
<path fill="none" stroke="#e74c3c" d="M224.315,-90C236.938,-90 247.417,-90 252.733,-90"/>
</g>
<!-- Mrs Granger -->
<g id="node40" class="node"><title>Mrs Granger</title>
<polygon fill="white" stroke="#cccccc" points="224,-54 44,-54 44,-18 224,-18 224,-54"/>
<text text-anchor="middle" x="134" y="-31.8" font-family="Helvetica, Arial, sans-serif" font-size="14.00">Mrs Granger</text>
</g>
<!-- Mrs Granger&#45;&gt;union_3 -->
<g id="edge38" class="edge"><title>Mrs Granger&#45;&gt;union_3</title>
<path fill="none" stroke="#e74c3c" d="M224.038,-36C242.794,-36 257,-36 257,-36 257,-36 257,-74.4434 257,-86.4569"/>
</g>
<!-- siblings_3&#45;&gt;Hermione -->
<g id="edge40" class="edge"><title>siblings_3&#45;&gt;Hermione</title>
<path fill="none" stroke="#e74c3c" d="M295,-90.6003C295,-98.606 295,-184 295,-184 295,-184 314.972,-184 314.972,-184"/>
<polygon fill="#e74c3c" stroke="#e74c3c" points="322.971,-174 322.972,-194 318.972,-194 318.971,-174 322.971,-174"/>
<polyline fill="none" stroke="#e74c3c" points="324.972,-184 314.972,-184 "/>
</g>
<!-- siblings_4 -->
<g id="node42" class="node"><title>siblings_4</title>
<polygon fill="#1abc9c" stroke="#cccccc" stroke-width="0" points="15,-720.5 8,-720.5 8,-719.5 15,-719.5 15,-720.5"/>
</g>
<!-- siblings_4&#45;&gt;Lily -->
<g id="edge41" class="edge"><title>siblings_4&#45;&gt;Lily</title>
<path fill="none" stroke="#1abc9c" d="M12,-720.831C12,-728.961 12,-794 12,-794 12,-794 33.7356,-794 33.7356,-794"/>
<polygon fill="#1abc9c" stroke="#1abc9c" points="41.7355,-784 41.7357,-804 37.7357,-804 37.7355,-784 41.7355,-784"/>
<polyline fill="none" stroke="#1abc9c" points="43.7356,-794 33.7356,-794 "/>
</g>
<!-- siblings_4&#45;&gt;Petunia -->
<g id="edge42" class="edge"><title>siblings_4&#45;&gt;Petunia</title>
<path fill="none" stroke="#1abc9c" d="M12,-719.169C12,-711.039 12,-646 12,-646 12,-646 33.7356,-646 33.7356,-646"/>
<polygon fill="#1abc9c" stroke="#1abc9c" points="41.7355,-636 41.7357,-656 37.7357,-656 37.7355,-636 41.7355,-636"/>
<polyline fill="none" stroke="#1abc9c" points="43.7356,-646 33.7356,-646 "/>
</g>
</g>
</svg>
