<?xml version="1.0" encoding="UTF-8" standalone="no"?>
<!DOCTYPE svg PUBLIC "-//W3C//DTD SVG 1.1//EN"
 "http://www.w3.org/Graphics/SVG/1.1/DTD/svg11.dtd">
<!-- Generated by graphviz version 2.38.0 (20140413.2041)
 -->
<!-- Title: G Pages: 1 -->
<svg width="786pt" height="505pt"
 viewBox="0.00 0.00 786.00 505.00" xmlns="http://www.w3.org/2000/svg" xmlns:xlink="http://www.w3.org/1999/xlink">
<g id="graph0" class="graph" transform="scale(1 1) rotate(0) translate(4 501)">
<title>G</title>
<polygon fill="white" stroke="none" points="-4,4 -4,-501 782,-501 782,4 -4,4"/>
<g id="clust1" class="cluster"><title>cluster_family_0</title>
<polygon fill="#fafafa" stroke="#fafafa" points="8,-352 8,-489 489,-489 489,-352 8,-352"/>
<text text-anchor="start" x="16" y="-471.6" font-family="Helvetica, Arial, sans-serif" font-weight="bold" font-size="16.00">Pritchett</text>
</g>
<g id="clust2" class="cluster"><title>cluster_family_0_0</title>
</g>
<g id="clust5" class="cluster"><title>cluster_family_0_1</title>
</g>
<g id="clust8" class="cluster"><title>cluster_family_1</title>
<polygon fill="#fafafa" stroke="#fafafa" points="289,-153 289,-344 770,-344 770,-153 289,-153"/>
<text text-anchor="start" x="297" y="-326.6" font-family="Helvetica, Arial, sans-serif" font-weight="bold" font-size="16.00">Dunphy</text>
</g>
<g id="clust9" class="cluster"><title>cluster_family_1_0</title>
</g>
<g id="clust12" class="cluster"><title>cluster_family_2</title>
<polygon fill="#fafafa" stroke="#fafafa" points="289,-8 289,-145 770,-145 770,-8 289,-8"/>
<text text-anchor="start" x="297" y="-127.6" font-family="Helvetica, Arial, sans-serif" font-weight="bold" font-size="16.00">Tucker</text>
</g>
<g id="clust13" class="cluster"><title>cluster_family_2_0</title>
</g>
<g id="clust16" class="cluster"><title>cluster_family_3</title>
</g>
<!-- union_0_0 -->
<g id="node1" class="node"><title>union_0_0</title>
<ellipse fill="#2ecc71" stroke="white" cx="230.5" cy="-434" rx="3.5" ry="3.5"/>
</g>
<!-- siblings_0_0 -->
<g id="node3" class="node"><title>siblings_0_0</title>
<polygon fill="#2ecc71" stroke="#cccccc" stroke-width="0" points="270,-434.5 263,-434.5 263,-433.5 270,-433.5 270,-434.5"/>
</g>
<!-- union_0_0&#45;&gt;siblings_0_0 -->
<g id="edge2" class="edge"><title>union_0_0&#45;&gt;siblings_0_0</title>
<path fill="none" stroke="#2ecc71" d="M234.083,-434C240.913,-434 255.732,-434 262.715,-434"/>
</g>
<!-- Gloria -->
<g id="node2" class="node"><title>Gloria</title>
<polygon fill="white" stroke="#cccccc" points="198,-452 18,-452 18,-416 198,-416 198,-452"/>
<text text-anchor="middle" x="108" y="-429.8" font-family="Helvetica, Arial, sans-serif" font-size="14.00">Gloria</text>
</g>
<!-- Gloria&#45;&gt;union_0_0 -->
<g id="edge1" class="edge"><title>Gloria&#45;&gt;union_0_0</title>
<path fill="none" stroke="#2ecc71" d="M198.315,-434C210.938,-434 221.417,-434 226.733,-434"/>
</g>
<!-- union_0_1 -->
<g id="node5" class="node"><title>union_0_1</title>
<ellipse fill="#3498db" stroke="white" cx="230.5" cy="-380" rx="3.5" ry="3.5"/>
</g>
<!-- Gloria&#45;&gt;union_0_1 -->
<g id="edge4" class="edge"><title>Gloria&#45;&gt;union_0_1</title>
<path fill="none" stroke="#3498db" d="M198.038,-423.25C216.794,-423.25 231,-423.25 231,-423.25 231,-423.25 231,-394.147 231,-383.687"/>
</g>
<!-- Manny -->
<g id="node4" class="node"><title>Manny</title>
<polygon fill="white" stroke="#cccccc" points="479,-452 299,-452 299,-416 479,-416 479,-452"/>
<text text-anchor="middle" x="389" y="-429.8" font-family="Helvetica, Arial, sans-serif" font-size="14.00">Manny</text>
</g>
<!-- siblings_0_0&#45;&gt;Manny -->
<g id="edge3" class="edge"><title>siblings_0_0&#45;&gt;Manny</title>
<path fill="none" stroke="#2ecc71" d="M270.034,-434C270.034,-434 288.811,-434 288.811,-434"/>
<polygon fill="#2ecc71" stroke="#2ecc71" points="296.81,-424 296.811,-444 292.811,-444 292.81,-424 296.81,-424"/>
<polyline fill="none" stroke="#2ecc71" points="298.811,-434 288.811,-434 "/>
</g>
<!-- siblings_0_1 -->
<g id="node7" class="node"><title>siblings_0_1</title>
<polygon fill="#3498db" stroke="#cccccc" stroke-width="0" points="270,-380.5 263,-380.5 263,-379.5 270,-379.5 270,-380.5"/>
</g>
<!-- union_0_1&#45;&gt;siblings_0_1 -->
<g id="edge6" class="edge"><title>union_0_1&#45;&gt;siblings_0_1</title>
<path fill="none" stroke="#3498db" d="M234.083,-380C240.913,-380 255.732,-380 262.715,-380"/>
</g>
<!-- Jay -->
<g id="node6" class="node"><title>Jay</title>
<polygon fill="white" stroke="#cccccc" points="198,-398 18,-398 18,-362 198,-362 198,-398"/>
<text text-anchor="middle" x="108" y="-375.8" font-family="Helvetica, Arial, sans-serif" font-size="14.00">Jay</text>
</g>
<!-- Jay&#45;&gt;union_0_1 -->
<g id="edge5" class="edge"><title>Jay&#45;&gt;union_0_1</title>
<path fill="none" stroke="#3498db" d="M198.315,-380C210.938,-380 221.417,-380 226.733,-380"/>
</g>
<!-- union_3 -->
<g id="node21" class="node"><title>union_3</title>
<ellipse fill="#e74c3c" stroke="white" cx="230.5" cy="-208" rx="3.5" ry="3.5"/>
</g>
<!-- Jay&#45;&gt;union_3 -->
<g id="edge18" class="edge"><title>Jay&#45;&gt;union_3</title>
<path fill="none" stroke="#e74c3c" d="M198.038,-369.25C216.794,-369.25 231,-369.25 231,-369.25 231,-369.25 231,-235.673 231,-211.671"/>
</g>
<!-- Joe -->
<g id="node8" class="node"><title>Joe</title>
<polygon fill="white" stroke="#cccccc" points="479,-398 299,-398 299,-362 479,-362 479,-398"/>
<text text-anchor="middle" x="389" y="-375.8" font-family="Helvetica, Arial, sans-serif" font-size="14.00">Joe</text>
</g>
<!-- siblings_0_1&#45;&gt;Joe -->
<g id="edge7" class="edge"><title>siblings_0_1&#45;&gt;Joe</title>
<path fill="none" stroke="#3498db" d="M270.034,-380C270.034,-380 288.811,-380 288.811,-380"/>
<polygon fill="#3498db" stroke="#3498db" points="296.81,-370 296.811,-390 292.811,-390 292.81,-370 296.81,-370"/>
<polyline fill="none" stroke="#3498db" points="298.811,-380 288.811,-380 "/>
</g>
<!-- union_1_0 -->
<g id="node9" class="node"><title>union_1_0</title>
<ellipse fill="#34495e" stroke="white" cx="511.5" cy="-235" rx="3.5" ry="3.5"/>
</g>
<!-- siblings_1_0 -->
<g id="node12" class="node"><title>siblings_1_0</title>
<polygon fill="#34495e" stroke="#cccccc" stroke-width="0" points="551,-235.5 544,-235.5 544,-234.5 551,-234.5 551,-235.5"/>
</g>
<!-- union_1_0&#45;&gt;siblings_1_0 -->
<g id="edge10" class="edge"><title>union_1_0&#45;&gt;siblings_1_0</title>
<path fill="none" stroke="#34495e" d="M515.083,-235C521.913,-235 536.732,-235 543.715,-235"/>
</g>
<!-- Phil -->
<g id="node10" class="node"><title>Phil</title>
<polygon fill="white" stroke="#cccccc" points="479,-280 299,-280 299,-244 479,-244 479,-280"/>
<text text-anchor="middle" x="389" y="-257.8" font-family="Helvetica, Arial, sans-serif" font-size="14.00">Phil</text>
</g>
<!-- Phil&#45;&gt;union_1_0 -->
<g id="edge8" class="edge"><title>Phil&#45;&gt;union_1_0</title>
<path fill="none" stroke="#34495e" d="M479.038,-248.5C497.794,-248.5 512,-248.5 512,-248.5 512,-248.5 512,-242.686 512,-238.689"/>
</g>
<!-- Claire -->
<g id="node11" class="node"><title>Claire</title>
<polygon fill="white" stroke="#cccccc" points="479,-226 299,-226 299,-190 479,-190 479,-226"/>
<text text-anchor="middle" x="389" y="-203.8" font-family="Helvetica, Arial, sans-serif" font-size="14.00">Claire</text>
</g>
<!-- Claire&#45;&gt;union_1_0 -->
<g id="edge9" class="edge"><title>Claire&#45;&gt;union_1_0</title>
<path fill="none" stroke="#34495e" d="M479.116,-221.5C498.348,-221.5 513,-221.5 513,-221.5 513,-221.5 513,-227.594 513,-231.593"/>
</g>
<!-- Alex -->
<g id="node13" class="node"><title>Alex</title>
<polygon fill="white" stroke="#cccccc" points="760,-199 580,-199 580,-163 760,-163 760,-199"/>
<text text-anchor="middle" x="670" y="-176.8" font-family="Helvetica, Arial, sans-serif" font-size="14.00">Alex</text>
</g>
<!-- siblings_1_0&#45;&gt;Alex -->
<g id="edge11" class="edge"><title>siblings_1_0&#45;&gt;Alex</title>
<path fill="none" stroke="#34495e" d="M548,-234.297C548,-228.919 548,-194.5 548,-194.5 548,-194.5 569.736,-194.5 569.736,-194.5"/>
<polygon fill="#34495e" stroke="#34495e" points="577.735,-184.5 577.736,-204.5 573.736,-204.5 573.735,-184.5 577.735,-184.5"/>
<polyline fill="none" stroke="#34495e" points="579.736,-194.5 569.736,-194.5 "/>
</g>
<!-- Luke -->
<g id="node14" class="node"><title>Luke</title>
<polygon fill="white" stroke="#cccccc" points="760,-253 580,-253 580,-217 760,-217 760,-253"/>
<text text-anchor="middle" x="670" y="-230.8" font-family="Helvetica, Arial, sans-serif" font-size="14.00">Luke</text>
</g>
<!-- siblings_1_0&#45;&gt;Luke -->
<g id="edge12" class="edge"><title>siblings_1_0&#45;&gt;Luke</title>
<path fill="none" stroke="#34495e" d="M551.034,-235C551.034,-235 569.811,-235 569.811,-235"/>
<polygon fill="#34495e" stroke="#34495e" points="577.81,-225 577.811,-245 573.811,-245 573.81,-225 577.81,-225"/>
<polyline fill="none" stroke="#34495e" points="579.811,-235 569.811,-235 "/>
</g>
<!-- Haley -->
<g id="node15" class="node"><title>Haley</title>
<polygon fill="white" stroke="#cccccc" points="760,-307 580,-307 580,-271 760,-271 760,-307"/>
<text text-anchor="middle" x="670" y="-284.8" font-family="Helvetica, Arial, sans-serif" font-size="14.00">Haley</text>
</g>
<!-- siblings_1_0&#45;&gt;Haley -->
<g id="edge13" class="edge"><title>siblings_1_0&#45;&gt;Haley</title>
<path fill="none" stroke="#34495e" d="M548,-235.703C548,-241.081 548,-275.5 548,-275.5 548,-275.5 569.736,-275.5 569.736,-275.5"/>
<polygon fill="#34495e" stroke="#34495e" points="577.735,-265.5 577.736,-285.5 573.736,-285.5 573.735,-265.5 577.735,-265.5"/>
<polyline fill="none" stroke="#34495e" points="579.736,-275.5 569.736,-275.5 "/>
</g>
<!-- union_2_0 -->
<g id="node16" class="node"><title>union_2_0</title>
<ellipse fill="#e67e22" stroke="white" cx="511.5" cy="-63" rx="3.5" ry="3.5"/>
</g>
<!-- siblings_2_0 -->
<g id="node19" class="node"><title>siblings_2_0</title>
<polygon fill="#e67e22" stroke="#cccccc" stroke-width="0" points="551,-63.5 544,-63.5 544,-62.5 551,-62.5 551,-63.5"/>
</g>
<!-- union_2_0&#45;&gt;siblings_2_0 -->
<g id="edge16" class="edge"><title>union_2_0&#45;&gt;siblings_2_0</title>
<path fill="none" stroke="#e67e22" d="M515.083,-63C521.913,-63 536.732,-63 543.715,-63"/>
</g>
<!-- Cam -->
<g id="node17" class="node"><title>Cam</title>
<polygon fill="white" stroke="#cccccc" points="479,-108 299,-108 299,-72 479,-72 479,-108"/>
<text text-anchor="middle" x="389" y="-85.8" font-family="Helvetica, Arial, sans-serif" font-size="14.00">Cam</text>
</g>
<!-- Cam&#45;&gt;union_2_0 -->
<g id="edge14" class="edge"><title>Cam&#45;&gt;union_2_0</title>
<path fill="none" stroke="#e67e22" d="M479.264,-76.5C497.391,-76.5 511,-76.5 511,-76.5 511,-76.5 511,-70.686 511,-66.6889"/>
</g>
<!-- Mitchell -->
<g id="node18" class="node"><title>Mitchell</title>
<polygon fill="white" stroke="#cccccc" points="479,-54 299,-54 299,-18 479,-18 479,-54"/>
<text text-anchor="middle" x="389" y="-31.8" font-family="Helvetica, Arial, sans-serif" font-size="14.00">Mitchell</text>
</g>
<!-- Mitchell&#45;&gt;union_2_0 -->
<g id="edge15" class="edge"><title>Mitchell&#45;&gt;union_2_0</title>
<path fill="none" stroke="#e67e22" d="M479.038,-49.5C497.794,-49.5 512,-49.5 512,-49.5 512,-49.5 512,-55.314 512,-59.3111"/>
</g>
<!-- Lily -->
<g id="node20" class="node"><title>Lily</title>
<polygon fill="white" stroke="#cccccc" points="760,-81 580,-81 580,-45 760,-45 760,-81"/>
<text text-anchor="middle" x="670" y="-58.8" font-family="Helvetica, Arial, sans-serif" font-size="14.00">Lily</text>
</g>
<!-- siblings_2_0&#45;&gt;Lily -->
<g id="edge17" class="edge"><title>siblings_2_0&#45;&gt;Lily</title>
<path fill="none" stroke="#e67e22" stroke-width="0.25" stroke-dasharray="5,2" d="M551.034,-63C551.034,-63 569.811,-63 569.811,-63"/>
<polygon fill="#e67e22" stroke="#e67e22" stroke-width="0.25" points="577.81,-53 577.811,-73 573.811,-73.0001 573.81,-53.0001 577.81,-53"/>
<polyline fill="none" stroke="#e67e22" stroke-width="0.25" points="579.811,-63 569.811,-63.0001 "/>
</g>
<!-- siblings_3 -->
<g id="node23" class="node"><title>siblings_3</title>
<polygon fill="#e74c3c" stroke="#cccccc" stroke-width="0" points="270,-208.5 263,-208.5 263,-207.5 270,-207.5 270,-208.5"/>
</g>
<!-- union_3&#45;&gt;siblings_3 -->
<g id="edge20" class="edge"><title>union_3&#45;&gt;siblings_3</title>
<path fill="none" stroke="#e74c3c" d="M234.083,-208C240.913,-208 255.732,-208 262.715,-208"/>
</g>
<!-- Dede -->
<g id="node22" class="node"><title>Dede</title>
<polygon fill="#f4f4f4" stroke="#cccccc" stroke-width="0" points="198,-226 18,-226 18,-190 198,-190 198,-226"/>
<text text-anchor="middle" x="108" y="-203.8" font-family="Helvetica, Arial, sans-serif" font-size="14.00">Dede</text>
</g>
<!-- Dede&#45;&gt;union_3 -->
<g id="edge19" class="edge"><title>Dede&#45;&gt;union_3</title>
<path fill="none" stroke="#e74c3c" d="M198.315,-208C210.938,-208 221.417,-208 226.733,-208"/>
</g>
<!-- siblings_3&#45;&gt;Claire -->
<g id="edge21" class="edge"><title>siblings_3&#45;&gt;Claire</title>
<path fill="none" stroke="#e74c3c" d="M270.034,-208C270.034,-208 288.811,-208 288.811,-208"/>
<polygon fill="#e74c3c" stroke="#e74c3c" points="296.81,-198 296.811,-218 292.811,-218 292.81,-198 296.81,-198"/>
<polyline fill="none" stroke="#e74c3c" points="298.811,-208 288.811,-208 "/>
</g>
<!-- siblings_3&#45;&gt;Mitchell -->
<g id="edge22" class="edge"><title>siblings_3&#45;&gt;Mitchell</title>
<path fill="none" stroke="#e74c3c" d="M267,-207.233C267,-194.825 267,-36 267,-36 267,-36 288.736,-36 288.736,-36"/>
<polygon fill="#e74c3c" stroke="#e74c3c" points="296.735,-26 296.736,-46 292.736,-46.0001 292.735,-26.0001 296.735,-26"/>
<polyline fill="none" stroke="#e74c3c" points="298.736,-36 288.736,-36.0001 "/>
</g>
</g>
</svg>
